<svg width="41" height="41" viewBox="0 0 41 41" fill="none" xmlns="http://www.w3.org/2000/svg">
<path d="M23.9794 33.8651L23.1309 36.4104C22.7621 37.517 22.5776 38.0702 22.7088 38.4382C22.823 38.7584 23.075 39.0103 23.3952 39.1245C23.7631 39.2557 24.3164 39.0713 25.4229 38.7024L27.9683 37.854C28.271 37.7531 28.4223 37.7026 28.5636 37.6325C28.6891 37.5701 28.8086 37.4963 28.9204 37.4119C29.0464 37.3169 29.1592 37.2041 29.3848 36.9785L37.8399 28.5235C38.4574 27.906 38.7661 27.5972 38.9311 27.2642C39.2452 26.6305 39.2452 25.8865 38.9311 25.2528C38.7661 24.9197 38.4574 24.611 37.8399 23.9935C37.2224 23.376 36.9136 23.0672 36.5806 22.9022C35.9469 22.5882 35.2029 22.5882 34.5692 22.9022C34.2361 23.0672 33.9274 23.376 33.3099 23.9935L24.8548 32.4485C24.6292 32.6741 24.5164 32.7869 24.4214 32.9129C24.337 33.0247 24.2632 33.1442 24.2009 33.2697C24.1307 33.411 24.0803 33.5624 23.9794 33.8651Z" fill="#FF69A8" fill-opacity="0.4"/>
<path d="M6.50407 34.7007L7.33639 33.0672H7.33639L6.50407 34.7007ZM3.29929 31.4959L1.66577 32.3282L1.66577 32.3282L3.29929 31.4959ZM31.4959 3.29929L32.3282 1.66577L32.3282 1.66577L31.4959 3.29929ZM34.7007 6.50407L33.0672 7.33639V7.33639L34.7007 6.50407ZM6.50407 3.29929L7.33639 4.9328L6.50407 3.29929ZM3.29929 6.50407L4.9328 7.33639L3.29929 6.50407ZM33.6667 17.1667C33.6667 18.1792 34.4875 19 35.5 19C36.5125 19 37.3333 18.1792 37.3333 17.1667H33.6667ZM17.1667 37.3333C18.1792 37.3333 19 36.5125 19 35.5C19 34.4875 18.1792 33.6667 17.1667 33.6667V37.3333ZM11.6667 9.83333C10.6541 9.83333 9.83333 10.6541 9.83333 11.6667C9.83333 12.6792 10.6541 13.5 11.6667 13.5V9.83333ZM26.3333 13.5C27.3459 13.5 28.1667 12.6792 28.1667 11.6667C28.1667 10.6541 27.3459 9.83333 26.3333 9.83333V13.5ZM11.6667 17.1667C10.6541 17.1667 9.83333 17.9875 9.83333 19C9.83333 20.0125 10.6541 20.8333 11.6667 20.8333V17.1667ZM26.3333 20.8333C27.3459 20.8333 28.1667 20.0125 28.1667 19C28.1667 17.9875 27.3459 17.1667 26.3333 17.1667V20.8333ZM11.6667 24.5C10.6541 24.5 9.83333 25.3208 9.83333 26.3333C9.83333 27.3459 10.6541 28.1667 11.6667 28.1667V24.5ZM19 28.1667C20.0125 28.1667 20.8333 27.3459 20.8333 26.3333C20.8333 25.3208 20.0125 24.5 19 24.5V28.1667ZM23.1309 36.4104L24.8702 36.9902L23.1309 36.4104ZM23.9794 33.8651L22.2401 33.2853V33.2853L23.9794 33.8651ZM24.8548 32.4485L26.1512 33.7449L26.1512 33.7449L24.8548 32.4485ZM33.3099 23.9935L32.0135 22.6971L32.0135 22.6971L33.3099 23.9935ZM37.8399 28.5235L39.1362 29.8198L37.8399 28.5235ZM29.3848 36.9785L28.0885 35.6821L28.0885 35.6821L29.3848 36.9785ZM27.9683 37.854L28.548 39.5932L28.548 39.5932L27.9683 37.854ZM25.4229 38.7024L26.0027 40.4417H26.0027L25.4229 38.7024ZM28.9204 37.4119L30.0246 38.8755L28.9204 37.4119ZM28.5636 37.6325L27.7483 35.9904L27.7483 35.9904L28.5636 37.6325ZM37.8399 23.9935L36.5435 25.2898L37.8399 23.9935ZM38.9311 25.2528L40.5738 24.4387L38.9311 25.2528ZM38.9311 27.2642L40.5738 28.0782L38.9311 27.2642ZM34.5692 22.9022L35.3832 24.5449L34.5692 22.9022ZM36.5806 22.9022L35.7665 24.5449H35.7665L36.5806 22.9022ZM24.2009 33.2697L25.8429 34.085L24.2009 33.2697ZM24.4214 32.9129L22.9578 31.8088L24.4214 32.9129ZM22.7088 38.4382L24.4357 37.8224L22.7088 38.4382ZM23.3952 39.1245L22.7794 40.8513L23.3952 39.1245ZM14.2333 4.33333H23.7667V0.666667H14.2333V4.33333ZM4.33333 23.7667V14.2333H0.666667V23.7667H4.33333ZM14.2333 33.6667C12.1496 33.6667 10.697 33.6652 9.56611 33.5728C8.45663 33.4822 7.8192 33.3132 7.33639 33.0672L5.67175 36.3342C6.75762 36.8875 7.9313 37.1182 9.26752 37.2273C10.5823 37.3348 12.2101 37.3333 14.2333 37.3333V33.6667ZM0.666667 23.7667C0.666667 25.7899 0.665241 27.4177 0.772666 28.7325C0.88184 30.0687 1.1125 31.2424 1.66577 32.3282L4.9328 30.6636C4.68679 30.1808 4.5178 29.5434 4.42716 28.4339C4.33476 27.303 4.33333 25.8504 4.33333 23.7667H0.666667ZM7.33639 33.0672C6.3015 32.5399 5.4601 31.6985 4.9328 30.6636L1.66577 32.3282C2.54461 34.0531 3.94693 35.4554 5.67175 36.3342L7.33639 33.0672ZM23.7667 4.33333C25.8504 4.33333 27.303 4.33476 28.4339 4.42716C29.5434 4.5178 30.1808 4.68679 30.6636 4.9328L32.3282 1.66577C31.2424 1.1125 30.0687 0.88184 28.7325 0.772666C27.4177 0.665241 25.7899 0.666667 23.7667 0.666667V4.33333ZM37.3333 14.2333C37.3333 12.2101 37.3348 10.5823 37.2273 9.26752C37.1182 7.9313 36.8875 6.75762 36.3342 5.67175L33.0672 7.33639C33.3132 7.8192 33.4822 8.45663 33.5728 9.56611C33.6652 10.697 33.6667 12.1496 33.6667 14.2333H37.3333ZM30.6636 4.9328C31.6985 5.4601 32.5399 6.3015 33.0672 7.33639L36.3342 5.67175C35.4554 3.94693 34.0531 2.54461 32.3282 1.66577L30.6636 4.9328ZM14.2333 0.666667C12.2101 0.666667 10.5823 0.665241 9.26752 0.772666C7.9313 0.88184 6.75762 1.1125 5.67175 1.66577L7.33639 4.9328C7.8192 4.68679 8.45663 4.5178 9.56611 4.42716C10.697 4.33476 12.1496 4.33333 14.2333 4.33333V0.666667ZM4.33333 14.2333C4.33333 12.1496 4.33476 10.697 4.42716 9.56611C4.5178 8.45663 4.68679 7.8192 4.9328 7.33639L1.66577 5.67175C1.1125 6.75762 0.88184 7.9313 0.772666 9.26752C0.665241 10.5823 0.666667 12.2101 0.666667 14.2333H4.33333ZM5.67175 1.66577C3.94693 2.54461 2.54461 3.94693 1.66577 5.67175L4.9328 7.33639C5.4601 6.30149 6.30149 5.4601 7.33639 4.9328L5.67175 1.66577ZM33.6667 14.2333V17.1667H37.3333V14.2333H33.6667ZM14.2333 37.3333H17.1667V33.6667H14.2333V37.3333ZM11.6667 13.5H26.3333V9.83333H11.6667V13.5ZM11.6667 20.8333H26.3333V17.1667H11.6667V20.8333ZM11.6667 28.1667H19V24.5H11.6667V28.1667ZM24.8702 36.9902L25.7186 34.4448L22.2401 33.2853L21.3917 35.8307L24.8702 36.9902ZM26.1512 33.7449L34.6062 25.2898L32.0135 22.6971L23.5585 31.1521L26.1512 33.7449ZM36.5435 27.2271L28.0885 35.6821L30.6812 38.2749L39.1362 29.8198L36.5435 27.2271ZM27.3885 36.1147L24.8432 36.9632L26.0027 40.4417L28.548 39.5932L27.3885 36.1147ZM28.0885 35.6821C27.9689 35.8017 27.9047 35.8656 27.8551 35.9126C27.813 35.9525 27.807 35.9554 27.8163 35.9484L30.0246 38.8755C30.2758 38.686 30.4902 38.4659 30.6812 38.2749L28.0885 35.6821ZM28.548 39.5932C28.8043 39.5078 29.0971 39.4145 29.3789 39.2745L27.7483 35.9904C27.7588 35.9852 27.7535 35.9892 27.6991 36.0091C27.6348 36.0325 27.5489 36.0613 27.3885 36.1147L28.548 39.5932ZM27.8163 35.9484C27.795 35.9644 27.7723 35.9785 27.7483 35.9904L29.3789 39.2745C29.606 39.1618 29.8221 39.0282 30.0246 38.8755L27.8163 35.9484ZM36.5435 25.2898C36.8669 25.6132 37.0552 25.8025 37.1876 25.9508C37.3115 26.0895 37.3097 26.1097 37.2884 26.0668L40.5738 24.4387C40.2415 23.7681 39.6491 23.2099 39.1362 22.6971L36.5435 25.2898ZM39.1362 29.8198C39.6491 29.307 40.2415 28.7488 40.5738 28.0782L37.2884 26.4501C37.3097 26.4072 37.3115 26.4274 37.1876 26.5661C37.0552 26.7144 36.8669 26.9037 36.5435 27.2271L39.1362 29.8198ZM37.2884 26.0668C37.3483 26.1876 37.3483 26.3294 37.2884 26.4501L40.5738 28.0782C41.142 26.9316 41.142 25.5854 40.5738 24.4387L37.2884 26.0668ZM34.6062 25.2898C34.9296 24.9664 35.1189 24.7781 35.2672 24.6457C35.4059 24.5219 35.4261 24.5236 35.3832 24.5449L33.7551 21.2595C33.0846 21.5918 32.5263 22.1843 32.0135 22.6971L34.6062 25.2898ZM39.1362 22.6971C38.6234 22.1843 38.0652 21.5918 37.3946 21.2595L35.7665 24.5449C35.7236 24.5236 35.7438 24.5219 35.8825 24.6457C36.0308 24.7781 36.2201 24.9664 36.5435 25.2898L39.1362 22.6971ZM35.3832 24.5449C35.504 24.485 35.6458 24.485 35.7665 24.5449L37.3946 21.2595C36.248 20.6913 34.9018 20.6913 33.7551 21.2595L35.3832 24.5449ZM25.7186 34.4448C25.7721 34.2845 25.8009 34.1985 25.8243 34.1343C25.8441 34.0798 25.8482 34.0745 25.8429 34.085L22.5588 32.4544C22.4189 32.7363 22.3255 33.0291 22.2401 33.2853L25.7186 34.4448ZM23.5585 31.1521C23.3675 31.3432 23.1473 31.5576 22.9578 31.8088L25.885 34.017C25.8779 34.0263 25.8809 34.0204 25.9207 33.9783C25.9677 33.9286 26.0317 33.8644 26.1512 33.7449L23.5585 31.1521ZM25.8429 34.085C25.8548 34.0611 25.8689 34.0383 25.885 34.017L22.9578 31.8088C22.8051 32.0112 22.6715 32.2273 22.5588 32.4544L25.8429 34.085ZM21.3917 35.8307C21.2188 36.3493 21.0471 36.8584 20.9476 37.2819C20.8545 37.6782 20.7304 38.3485 20.982 39.054L24.4357 37.8224C24.4997 38.002 24.5015 38.1415 24.4996 38.1915C24.498 38.2327 24.4936 38.2205 24.5171 38.1207C24.5397 38.0242 24.5778 37.8894 24.6397 37.6927C24.7012 37.4973 24.7765 37.2712 24.8702 36.9902L21.3917 35.8307ZM24.8432 36.9632C24.5622 37.0568 24.3361 37.1321 24.1406 37.1937C23.9439 37.2556 23.8092 37.2936 23.7127 37.3163C23.6128 37.3397 23.6006 37.3353 23.6418 37.3338C23.6919 37.3319 23.8313 37.3336 24.0109 37.3977L22.7794 40.8513C23.4849 41.1029 24.1551 40.9788 24.5514 40.8857C24.9749 40.7862 25.4841 40.6145 26.0027 40.4417L24.8432 36.9632ZM20.982 39.054C21.281 39.8925 21.9409 40.5523 22.7794 40.8513L24.0109 37.3977C24.2091 37.4683 24.365 37.6243 24.4357 37.8224L20.982 39.054Z" fill="#FF63AE"/>
</svg>
