<?xml version="1.0" encoding="UTF-8"?>
<!DOCTYPE svg PUBLIC "-//W3C//DTD SVG 1.1//EN" "http://www.w3.org/Graphics/SVG/1.1/DTD/svg11.dtd">
<!-- Creator: CorelDRAW -->
<svg xmlns="http://www.w3.org/2000/svg" xml:space="preserve" width="1424px" height="238px" version="1.1" style="shape-rendering:geometricPrecision; text-rendering:geometricPrecision; image-rendering:optimizeQuality; fill-rule:evenodd; clip-rule:evenodd"
viewBox="0 0 276.04 46.08"
 xmlns:xlink="http://www.w3.org/1999/xlink"
 xmlns:xodm="http://www.corel.com/coreldraw/odm/2003">
 <defs>
  <style type="text/css">
   <![CDATA[
    .fil0 {fill:#373435}
   ]]>
  </style>
 </defs>
 <g id="Layer_x0020_1">
  <metadata id="CorelCorpID_0Corel-Layer"/>
  <path class="fil0" d="M37.89 14.09c13.24,7.84 19.97,16.4 32.42,22.83 15.86,8.18 25.95,8.95 46.19,9.01 7.1,0.03 14.3,0.1 21.52,0.15 7.22,-0.05 14.42,-0.12 21.52,-0.15 20.24,-0.06 30.32,-0.83 46.19,-9.01 12.45,-6.43 19.18,-14.99 32.42,-22.83 12.22,-7.25 24.5,-8.17 37.89,-8.25l0 -5.84 -138.02 0 -138.02 0 0 5.84c13.39,0.08 25.67,1 37.89,8.25z"/>
 </g>
</svg>
